{"title":"Truth (2013) DVD RIP (Sean Paul Lockhart) Movie Gay Intrest","uid":9944319,"size":1414193835,"categoryP":"video","categoryS":"movies","magnet":"?xt=urn:btih:b0c1bec9e509cf381db63269df3fde1e4809653b&amp;dn=Truth+%282013%29+DVD+RIP+%28Sean+Paul+Lockhart%29+Movie+Gay+Intrest&amp;tr=udp%3A%2F%2Ftracker.openbittorrent.com%3A80&amp;tr=udp%3A%2F%2Fopen.demonii.com%3A1337&amp;tr=udp%3A%2F%2Ftracker.coppersurfer.tk%3A6969&amp;tr=udp%3A%2F%2Fexodus.desync.com%3A6969","seeders":11,"leechers":4,"uploader":"jmanwf","files":-1,"time":1397290950,"description":"Description\nStoryline\n\nA suspenseful, psychological thriller, &quot;Truth&quot; exposes the hidden demons buried deep inside each and every one of us. After a chance encounter over the Internet, Caleb (Sean Paul Lockhart, &quot;Milk&quot;, &quot;Judas Kiss&quot;, &quot;Chillerama&quot;) meets and falls head over heels for Jeremy (Rob Moretti, &quot;Crutch&quot;, &quot;An Affirmative Act&quot;, &quot;Snapshot&quot;), and soon the line between love and lies blur. Struggling to keep his past a secret, including his mentally ill mother, Caleb slowly succumbs to his darker side. A sudden turn of events finds Jeremy held captive, until Caleb's quest for the truth be revealed. The film also stars Emmy WinnerÂ® Blanche Baker, (&quot;16 Candles&quot;, &quot;Raw Deal&quot;,\n\n\nFormat : MPEG-4\nFormat profile : Base Media\nCodec ID : isom\nFile size : 1.31 GiB\nDuration : 1h 33mn\nOverall bit rate mode : Variable\nOverall bit rate : 1 996 Kbps\nWriting application : Lavf52.99.1\n\nVideo\nID : 1\nFormat : AVC\nFormat/Info : Advanced Video Codec\nFormat profile : &lt;a class=&quot;__cf_email__&quot; href=&quot;/cdn-cgi/l/email-protection&quot; data-cfemail=&quot;400d21292e000c736e71&quot;&gt;[email&amp;#160;protected]&lt;/a&gt;&lt;script cf-hash='f9e31' type=&quot;text/javascript&quot;&gt;\n/* &lt;![CDATA[ */!function(){try{var t=&quot;currentScript&quot;in document?document.currentScript:function(){for(var t=document.getElementsByTagName(&quot;script&quot;),e=t.length;e--;)if(t[e].getAttribute(&quot;cf-hash&quot;))return t[e]}();if(t&amp;&amp;t.previousSibling){var e,r,n,i,c=t.previousSibling,a=c.getAttribute(&quot;data-cfemail&quot;);if(a){for(e=&quot;&quot;,r=parseInt(a.substr(0,2),16),n=2;a.length-n;n+=2)i=parseInt(a.substr(n,2),16)^r,e+=String.fromCharCode(i);e=document.createTextNode(e),c.parentNode.replaceChild(e,c)}}}catch(u){}}();/* ]]&gt; */&lt;/script&gt;\nFormat settings, CABAC : Yes\nFormat settings, ReFrames : 5 frames\nCodec ID : avc1\nCodec ID/Info : Advanced Video Coding\nDuration : 1h 33mn\nBit rate : 1 738 Kbps\nNominal bit rate : 1 850 Kbps\nWidth : 1 280 pixels\nHeight : 544 pixels\nDisplay aspect ratio : 2.35:1\nFrame rate mode : Constant\nFrame rate : 23.976 fps\nColor space : YUV\nChroma subsampling : 4:2:0\nBit depth : 8 bits\nScan type : Progressive\nBits/(Pixel*Frame) : 0.104\nStream size : 1.14 GiB (87%)\nWriting library : x264 core 114 r1913 5fd3dce\n\nTagged date : UTC 2014-03-20 18:30:45\n\nAudio\nID : 2\nFormat : AAC\nFormat/Info : Advanced Audio Codec\nFormat profile : LC\nCodec ID : 40\nDuration : 1h 33mn\nBit rate mode : Variable\nBit rate : 165 Kbps\nChannel(s) : 2 channels\nChannel positions : Front: L R\nSampling rate : 48.0 KHz\nCompression mode : Lossy\nStream size : 111 MiB (8%)\nLanguage : English\nTagged date : UTC 2014-03-20 18:30:45\n\n &lt;a href=&quot;\nhttp://www.imdb.com/title/tt2459920/&quot; rel=&quot;nofollow&quot; target=&quot;_NEW&quot;&gt;\nhttp://www.imdb.com/title/tt2459920/&lt;/a&gt;","torrent":{"xt":"urn:btih:b0c1bec9e509cf381db63269df3fde1e4809653b","amp;dn":"Truth+%282013%29+DVD+RIP+%28Sean+Paul+Lockhart%29+Movie+Gay+Intrest","amp;tr":["udp%3A%2F%2Ftracker.openbittorrent.com%3A80","udp%3A%2F%2Fopen.demonii.com%3A1337","udp%3A%2F%2Ftracker.coppersurfer.tk%3A6969","udp%3A%2F%2Fexodus.desync.com%3A6969"],"infoHash":"b0c1bec9e509cf381db63269df3fde1e4809653b","infoHashBuffer":{"type":"Buffer","data":[176,193,190,201,229,9,207,56,29,182,50,105,223,63,222,30,72,9,101,59]},"announce":[],"urlList":[]}}